STARTFONT 2.1
COMMENT
COMMENT Converted from OpenType font "Q:\font stuff\winfont\Break.ttf" by "otf2bdf 3.0".
COMMENT
FONT -FreeType-Break-Medium-R-Normal--72-720-72-72-P-306-ISO10646-1
SIZE 72 72 72
FONTBOUNDINGBOX 83 61 0 -5
STARTPROPERTIES 19
FOUNDRY "FreeType"
FAMILY_NAME "Break"
WEIGHT_NAME "Medium"
SLANT "R"
SETWIDTH_NAME "Normal"
ADD_STYLE_NAME ""
PIXEL_SIZE 72
POINT_SIZE 720
RESOLUTION_X 72
RESOLUTION_Y 72
SPACING "P"
AVERAGE_WIDTH 306
CHARSET_REGISTRY "ISO10646"
CHARSET_ENCODING "1"
FONT_ASCENT 48
FONT_DESCENT 12
COPYRIGHT "design: onezero/©2003onezero/contact: onezero@gmx.ch"
_OTF_FONTFILE "Q:\font stuff\winfont\Break.ttf"
_OTF_PSNAME "Break"
ENDPROPERTIES
CHARS 99
STARTCHAR 0020
ENCODING 32
SWIDTH 833 0
DWIDTH 60 0
BBX 0 0 0 0
BITMAP
ENDCHAR
STARTCHAR 0021
ENCODING 33
SWIDTH 138 0
DWIDTH 10 0
BBX 5 48 1 0
BITMAP
F8
F8
F8
F8
F8
F8
F8
F8
F8
F8
F8
F8
F8
F8
F8
F8
F8
F8
F8
F8
F8
F8
F8
F8
F8
F8
F8
F8
F8
F8
F8
F8
F8
F8
F8
F8
F8
F8
00
00
00
00
00
F8
F8
F8
F8
F8
ENDCHAR
STARTCHAR 0022
ENCODING 34
SWIDTH 583 0
DWIDTH 42 0
BBX 13 8 1 40
BITMAP
F878
F878
F878
F878
F878
F878
F878
F878
ENDCHAR
STARTCHAR 0026
ENCODING 38
SWIDTH 638 0
DWIDTH 46 0
BBX 43 48 1 0
BITMAP
000FFFFC0000
003FFFFF0000
00FFFFFF8000
01FFFFFFC000
01FE001FE000
03F00003F000
03E00001F000
07C00000F000
07C00000F800
07800000F800
07800000F800
07800000F800
07800000F800
07C00000F800
07C00000F000
07E00001F000
03F00003F000
03F8000FE000
01FC003FC000
00FE01FFC000
007F07FF0000
003FBFFC0000
001FFFF00000
000FFFC00000
001FFE000000
007FF8000000
03FFFC000000
07FFFE000000
1FF87F000000
3FE03F800000
3F001FC00000
7E000FE00000
7C0007F00000
F80003F80000
F80001FC0000
F80000FEF800
F800007FF800
F800003FF800
F800001FF800
F800000FF800
F8000007F000
7C000003F800
7E000003FC00
3FFFFFFFFE00
1FFFFFFFFF00
0FFFFFFFBF80
07FFFFFF1FC0
01FFFFFC0FE0
ENDCHAR
STARTCHAR 0027
ENCODING 39
SWIDTH 333 0
DWIDTH 24 0
BBX 0 0 0 0
BITMAP
ENDCHAR
STARTCHAR 0028
ENCODING 40
SWIDTH 125 0
DWIDTH 9 0
BBX 8 58 0 -5
BITMAP
08
1C
3E
7E
7C
FC
F8
F8
F8
F8
F8
F8
F8
F8
F8
F8
F8
F8
F8
F8
F8
F8
F8
F8
F8
F8
F8
F8
F8
F8
F8
F8
F8
F8
F8
F8
F8
F8
F8
F8
F8
F8
F8
F8
F8
F8
F8
F8
F8
F8
F8
F8
7C
7E
3F
3E
1C
08
ENDCHAR
STARTCHAR 0029
ENCODING 41
SWIDTH 180 0
DWIDTH 13 0
BBX 8 58 0 -5
BITMAP
10
38
7C
FE
7E
3F
1F
1F
0F
0F
0F
0F
0F
0F
0F
0F
0F
0F
0F
0F
0F
0F
0F
0F
0F
0F
0F
0F
0F
0F
0F
0F
0F
0F
0F
0F
0F
0F
0F
0F
0F
0F
0F
0F
0F
0F
0F
0F
0F
0F
1F
1F
1F
3E
7E
7C
38
10
ENDCHAR
STARTCHAR 002C
ENCODING 44
SWIDTH 138 0
DWIDTH 10 0
BBX 5 9 1 -4
BITMAP
F8
F8
F8
F8
F8
F8
F8
F8
F8
ENDCHAR
STARTCHAR 002D
ENCODING 45
SWIDTH 402 0
DWIDTH 29 0
BBX 23 4 1 23
BITMAP
FFFFFE
FFFFFE
FFFFFE
FFFFFE
ENDCHAR
STARTCHAR 002E
ENCODING 46
SWIDTH 138 0
DWIDTH 10 0
BBX 5 5 1 0
BITMAP
F8
F8
F8
F8
F8
ENDCHAR
STARTCHAR 002F
ENCODING 47
SWIDTH 361 0
DWIDTH 26 0
BBX 25 50 0 -1
BITMAP
00000400
00000F00
00000F80
00001F00
00001F00
00003E00
00003E00
00003E00
00007C00
00007C00
0000F800
0000F800
0001F000
0001F000
0001F000
0003E000
0003E000
0007C000
0007C000
000F8000
000F8000
000F0000
001F0000
001F0000
003E0000
003E0000
007C0000
007C0000
00F80000
00F80000
00F80000
01F00000
01F00000
03E00000
03E00000
07C00000
07C00000
07C00000
0F800000
0F800000
1F000000
1F000000
3E000000
3E000000
3E000000
7C000000
7C000000
F8000000
78000000
10000000
ENDCHAR
STARTCHAR 0030
ENCODING 48
SWIDTH 583 0
DWIDTH 42 0
BBX 37 48 1 0
BITMAP
01FFFFFC00
07FFFFFF00
0FFFFFFF80
1FFFFFFFC0
3FC0001FE0
7E000003F0
7C000001F0
F8000000F0
F8000000F8
F8000000F8
F8000000F8
F8000000F8
F8000010F8
F8000030F8
F8000070F8
F80000F0F8
F80001F0F8
F80003F0F8
F80007E0F8
F8000FC0F8
F8001F80F8
F8003F00F8
F8007E00F8
F800FC00F8
F801F800F8
F803F000F8
F807E000F8
F80FC000F8
F81F8000F8
F83F0000F8
F87E0000F8
F87C0000F8
F8780000F8
F8700000F8
F8600000F8
F8400000F8
F8000000F8
F8000000F8
F8000000F8
F8000000F8
F8000000F0
7C000001F0
7E000003F0
3FFFFFFFE0
1FFFFFFFC0
0FFFFFFF80
07FFFFFF00
01FFFFFC00
ENDCHAR
STARTCHAR 0031
ENCODING 49
SWIDTH 555 0
DWIDTH 40 0
BBX 34 48 1 0
BITMAP
FFFFFFC000
FFFFFFF800
FFFFFFFC00
FFFFFFFE00
000000FF00
0000001F00
0000000F80
0000000F80
0000000780
00000007C0
00000007C0
00000007C0
00000007C0
00000007C0
00000007C0
00000007C0
00000007C0
00000007C0
00000007C0
00000007C0
00000007C0
00000007C0
00000007C0
00000007C0
00000007C0
00000007C0
00000007C0
00000007C0
00000007C0
00000007C0
00000007C0
00000007C0
00000007C0
00000007C0
00000007C0
00000007C0
00000007C0
00000007C0
00000007C0
00000007C0
00000007C0
00000007C0
00000007C0
00000007C0
00000007C0
00000007C0
00000007C0
00000007C0
ENDCHAR
STARTCHAR 0032
ENCODING 50
SWIDTH 583 0
DWIDTH 42 0
BBX 37 48 1 0
BITMAP
01FFFFFC00
07FFFFFF00
0FFFFFFF80
1FFFFFFFC0
3FC0001FE0
7E000003F0
7C000001F0
F8000000F0
F8000000F8
F8000000F8
F8000000F8
F8000000F8
F8000000F8
00000000F8
00000000F0
00000001F0
00000003F0
0000000FE0
0000003FC0
000001FFC0
000007FF00
00003FFC00
0000FFF000
0003FFC000
001FFE0000
007FF80000
03FFC00000
07FF000000
1FFC000000
3FE0000000
3F80000000
7E00000000
7C00000000
F800000000
F800000000
F800000000
F800000000
F800000000
F800000000
F800000000
F800000000
7C00000000
7E00000000
3FFFFFFFF8
1FFFFFFFF8
0FFFFFFFF8
07FFFFFFF8
01FFFFFFF8
ENDCHAR
STARTCHAR 0033
ENCODING 51
SWIDTH 541 0
DWIDTH 39 0
BBX 34 48 1 0
BITMAP
FFFFFFC000
FFFFFFF800
FFFFFFFC00
FFFFFFFE00
000000FF00
0000001F00
0000000F80
0000000F80
0000000780
00000007C0
00000007C0
00000007C0
00000007C0
00000007C0
00000007C0
00000007C0
00000007C0
00000007C0
00000007C0
00000007C0
00000007C0
0007FFFFC0
0007FFFFC0
0007FFFFC0
0007FFFFC0
00000007C0
00000007C0
00000007C0
00000007C0
00000007C0
00000007C0
00000007C0
00000007C0
00000007C0
00000007C0
00000007C0
00000007C0
00000007C0
0000000780
0000000780
0000000F80
0000000F80
0000003F00
FFFFFFFF00
FFFFFFFE00
FFFFFFFC00
FFFFFFF800
FFFFFFC000
ENDCHAR
STARTCHAR 0034
ENCODING 52
SWIDTH 583 0
DWIDTH 42 0
BBX 37 48 1 0
BITMAP
F8000000F8
F8000000F8
F8000000F8
F8000000F8
F8000000F8
F8000000F8
F8000000F8
F8000000F8
F8000000F8
F8000000F8
F8000000F8
F8000000F8
F8000000F8
F8000000F8
F8000000F8
F8000000F8
F8000000F8
F8000000F8
F8000000F8
F8000000F8
F8000000F8
F8000000F8
F8000000F8
F8000000F8
F8000000F8
7C000000F8
7E000000F8
3FFFFFFFF8
1FFFFFFFF8
0FFFFFFFF8
07FFFFFFF8
01FFFFFFF8
00000000F8
00000000F8
00000000F8
00000000F8
00000000F8
00000000F8
00000000F8
00000000F8
00000000F8
00000000F8
00000000F8
00000000F8
00000000F8
00000000F8
00000000F8
00000000F8
ENDCHAR
STARTCHAR 0035
ENCODING 53
SWIDTH 583 0
DWIDTH 42 0
BBX 37 48 1 0
BITMAP
01FFFFFFE0
07FFFFFFE0
0FFFFFFFE0
1FFFFFFFE0
3FC0000000
7E00000000
7C00000000
F800000000
F800000000
F800000000
F800000000
F800000000
F800000000
F800000000
F800000000
F800000000
F800000000
7C00000000
7E00000000
3FFFFFF800
1FFFFFFE00
0FFFFFFF80
07FFFFFFC0
00FFFFFFE0
00000007E0
00000001F0
00000001F0
00000000F8
00000000F8
00000000F8
00000000F8
00000000F8
00000000F8
00000000F8
00000000F8
F8000000F8
F8000000F8
F8000000F8
F8000000F8
F8000000F8
F8000000F0
7C000001F0
7E000003F0
3FFFFFFFE0
1FFFFFFFC0
0FFFFFFF80
07FFFFFF00
01FFFFFC00
ENDCHAR
STARTCHAR 0036
ENCODING 54
SWIDTH 583 0
DWIDTH 42 0
BBX 37 48 1 0
BITMAP
01FFFFFFC0
07FFFFFFC0
0FFFFFFFC0
1FFFFFFFC0
3FC0000000
7E00000000
7C00000000
F800000000
F800000000
F800000000
F800000000
F800000000
F800000000
F800000000
F800000000
F800000000
F9FFFFFC00
FFFFFFFF00
FFFFFFFF80
FFFFFFFFC0
FFFFFFFFE0
FE000003F0
FC000001F0
F8000001F0
F8000000F8
F8000000F8
F8000000F8
F8000000F8
F8000000F8
F8000000F8
F8000000F8
F8000000F8
F8000000F8
F8000000F8
F8000000F8
F8000000F8
F8000000F8
F8000000F8
F8000000F8
F8000000F8
F8000000F0
7C000001F0
7E000003F0
3FFFFFFFE0
1FFFFFFFC0
0FFFFFFF80
07FFFFFF00
01FFFFFC00
ENDCHAR
STARTCHAR 0037
ENCODING 55
SWIDTH 611 0
DWIDTH 44 0
BBX 40 48 0 0
BITMAP
1FFFFFFF80
1FFFFFFFE0
1FFFFFFFF0
1FFFFFFFFC
00000003FC
000000007E
000000003E
000000001F
000000001F
000000001F
000000000F
000000001F
000000001F
000000001F
000000003E
000000007E
00000000FC
00000001F8
00000003F0
00000007E0
0000000FC0
0000001F80
0000003F00
0000007E00
000000FC00
000001F800
000003F000
000007E000
00000FC000
00001F8000
00003F0000
00007E0000
0000FC0000
0001F80000
0003F00000
0007E00000
000FC00000
001F800000
003F000000
007E000000
00FC000000
01F8000000
03F0000000
07E0000000
0FC0000000
1F80000000
3F00000000
FE00000000
ENDCHAR
STARTCHAR 0038
ENCODING 56
SWIDTH 583 0
DWIDTH 42 0
BBX 37 48 1 0
BITMAP
01FFFFFC00
07FFFFFF00
0FFFFFFF80
1FFFFFFFC0
3FC0001FE0
7E000003F0
7C000001F0
F8000000F0
F8000000F8
F8000000F8
F8000000F8
F8000000F8
F8000000F8
F8000000F8
F8000000F8
F8000000F8
F8000001F0
7C000001F0
7E000007F0
3FFFFFFFE0
1FFFFFFFC0
0FFFFFFF80
1FFFFFFFC0
3FFFFFFFE0
7F000007E0
7C000001F0
F8000001F0
F8000000F8
F8000000F8
F8000000F8
F8000000F8
F8000000F8
F8000000F8
F8000000F8
F8000000F8
F8000000F8
F8000000F8
F8000000F8
F8000000F8
F8000000F8
F8000000F0
7C000001F0
7E000003F0
3FFFFFFFE0
1FFFFFFFC0
0FFFFFFF80
07FFFFFF00
01FFFFFC00
ENDCHAR
STARTCHAR 0039
ENCODING 57
SWIDTH 583 0
DWIDTH 42 0
BBX 37 48 1 0
BITMAP
01FFFFFC00
07FFFFFF00
0FFFFFFF80
1FFFFFFFC0
3FC0001FE0
7E000003F0
7C000001F0
F8000000F0
F8000000F8
F8000000F8
F8000000F8
F8000000F8
F8000000F8
F8000000F8
F8000000F8
F8000000F8
F8000000F8
F8000000F8
F8000000F8
F8000000F8
F8000000F8
F8000000F8
F8000000F8
F8000000F8
F8000001F8
7C000001F8
7E000003F8
3FFFFFFFF8
1FFFFFFFF8
0FFFFFFFF8
07FFFFFFF8
01FFFFF8F8
00000000F8
00000000F8
00000000F8
00000000F8
00000000F8
00000000F8
00000000F8
00000000F8
00000000F0
00000001F0
00000003F0
1FFFFFFFE0
1FFFFFFFC0
1FFFFFFF80
1FFFFFFF00
1FFFFFFC00
ENDCHAR
STARTCHAR 003A
ENCODING 58
SWIDTH 138 0
DWIDTH 10 0
BBX 5 31 1 -4
BITMAP
F8
F8
F8
F8
00
00
00
00
00
00
00
00
00
00
00
00
00
00
00
00
00
00
F8
F8
F8
F8
F8
F8
F8
F8
F8
ENDCHAR
STARTCHAR 003B
ENCODING 59
SWIDTH 138 0
DWIDTH 10 0
BBX 5 27 1 0
BITMAP
F8
F8
F8
F8
00
00
00
00
00
00
00
00
00
00
00
00
00
00
00
00
00
00
F8
F8
F8
F8
F8
ENDCHAR
STARTCHAR 003C
ENCODING 60
SWIDTH 666 0
DWIDTH 48 0
BBX 0 0 0 0
BITMAP
ENDCHAR
STARTCHAR 003E
ENCODING 62
SWIDTH 666 0
DWIDTH 48 0
BBX 0 0 0 0
BITMAP
ENDCHAR
STARTCHAR 003F
ENCODING 63
SWIDTH 583 0
DWIDTH 42 0
BBX 37 48 1 0
BITMAP
01FFFFFC00
07FFFFFF00
0FFFFFFF80
1FFFFFFFC0
3FC0001FE0
7E000003F0
7C000001F0
F8000000F0
F8000000F8
F8000000F8
F8000000F8
F8000000F8
F8000000F8
00000000F8
00000000F8
00000001F0
00000003F0
0000000FE0
0000001FC0
0000007F80
000000FF00
000003FE00
00000FF800
00001FE000
00007FC000
0000FF0000
0003FE0000
0007F80000
001FF00000
003FC00000
003F000000
007E000000
007C000000
00F8000000
00F8000000
00F8000000
00F8000000
00F8000000
0000000000
0000000000
0000000000
0000000000
0000000000
00F8000000
00F8000000
00F8000000
00F8000000
00F8000000
ENDCHAR
STARTCHAR 0040
ENCODING 64
SWIDTH 638 0
DWIDTH 46 0
BBX 40 48 1 0
BITMAP
01FFFFFF80
07FFFFFFE0
0FFFFFFFF0
1FFFFFFFF8
3FC00003FC
7E0000007E
7C0000003E
F80000001F
F80000001F
F80000001F
F80000001F
F807FFE01F
F80FFFF01F
F81FFFF81F
F83FFFFC1F
F83E007C1F
F83C003C1F
F83C003C1F
F83C003C1F
F83C003C1F
F83C003C1F
F83C003C1F
F83C003C1F
F83FE03C1F
F83FF01C1F
F83FF80C1F
F83FFC041F
F83CFE001F
F83C7F001F
F83C3F801F
F83C1FC01F
F83C0FE01F
F83C07F03F
F83C03FFFF
F83C01FFFE
F83C00FFFC
F83C003FF8
F800000000
F800000000
F800000000
F800000000
7C00000000
7E00000000
3FF8000000
1FF8000000
0FF8000000
07F8000000
01F8000000
ENDCHAR
STARTCHAR 0041
ENCODING 65
SWIDTH 583 0
DWIDTH 42 0
BBX 37 49 1 -1
BITMAP
01FFFFFC00
07FFFFFF00
0FFFFFFF80
1FFFFFFFC0
3FC0001FE0
7E000003F0
7C000001F0
F8000001F0
F8000000F8
F8000000F8
F8000000F8
F8000000F8
F8000000F8
F8000000F8
F8000000F8
F8000000F8
F8000000F8
F8000000F8
F8000000F8
F8000000F8
F8000000F8
F8000000F8
F8000000F8
FFE00000F8
FFFC0000F8
FFFE0000F8
FFFF0000F8
FFFF8000F8
F81FC000F8
F807E000F8
F803F000F8
F801F800F8
F800FC00F8
F800FE00F8
F8007F00F8
F8003F80F8
F8001FC0F8
F8000FE0F8
F80007F0F8
F80003F8F8
F80001FCF8
F80000FEF8
F800007FF8
F800003FF8
F800001FF8
F800000FF8
F8000007F8
F8000003F0
00000001E0
ENDCHAR
STARTCHAR 0042
ENCODING 66
SWIDTH 583 0
DWIDTH 42 0
BBX 37 48 1 0
BITMAP
01FFFFFC00
07FFFFFF00
0FFFFFFF80
1FFFFFFFC0
3FC0001FE0
7E000003F0
7C000001F0
F8000000F0
F8000000F8
F8000000F8
F8000000F8
F8000000F8
F8000000F8
F8000000F8
F8000000F8
F8000000F8
F8000000F8
F8000000F8
F8000001F0
F8000003F0
F800000FE0
FFFFFFFFE0
FFFFFFFFC0
FFFFFFFF80
FFFFFFFFC0
F800001FE0
F8000003F0
F8000001F0
F8000000F0
F8000000F8
F8000000F8
F8000000F8
F8000000F8
F8000000F8
F8000000F8
F8000000F8
F8000000F8
F8000000F8
F8000000F8
F8000000F8
F8000000F0
F8000001F0
F8000003F0
FFFFFFFFE0
FFFFFFFFC0
FFFFFFFF80
FFFFFFFF00
FFFFFFFC00
ENDCHAR
STARTCHAR 0043
ENCODING 67
SWIDTH 541 0
DWIDTH 39 0
BBX 34 48 1 0
BITMAP
01FFFFFFC0
07FFFFFFC0
0FFFFFFFC0
1FFFFFFFC0
3FC0000000
7E00000000
7C00000000
F800000000
F800000000
F800000000
F800000000
F800000000
F800000000
F800000000
F800000000
F800000000
F800000000
F800000000
F800000000
F800000000
F800000000
F800000000
F800000000
F800000000
F800000000
F800000000
F800000000
F800000000
F800000000
F800000000
F800000000
F800000000
F800000000
F800000000
F800000000
F800000000
F800000000
F800000000
F800000000
F800000000
F800000000
7C00000000
7E00000000
3FFFFFFFC0
1FFFFFFFC0
0FFFFFFFC0
07FFFFFFC0
01FFFFFFC0
ENDCHAR
STARTCHAR 0044
ENCODING 68
SWIDTH 583 0
DWIDTH 42 0
BBX 37 48 1 0
BITMAP
FFFFFFFC00
FFFFFFFF00
FFFFFFFF80
FFFFFFFFC0
F800001FE0
F8000003F0
F8000001F0
F8000000F0
F8000000F8
F8000000F8
F8000000F8
F8000000F8
F8000000F8
F8000000F8
F8000000F8
F8000000F8
F8000000F8
F8000000F8
F8000000F8
F8000000F8
F8000000F8
F8000000F8
F8000000F8
F8000000F8
F8000000F8
F8000000F8
F8000000F8
F8000000F8
F8000000F8
F8000000F8
F8000000F8
F8000000F8
F8000000F8
F8000000F8
F8000000F8
F8000000F8
F8000000F8
F8000000F8
F8000000F8
F8000000F8
F8000000F0
F8000001F0
F8000003F0
FFFFFFFFE0
FFFFFFFFC0
FFFFFFFF80
FFFFFFFF00
FFFFFFFC00
ENDCHAR
STARTCHAR 0045
ENCODING 69
SWIDTH 541 0
DWIDTH 39 0
BBX 34 48 1 0
BITMAP
01FFFFFFC0
07FFFFFFC0
0FFFFFFFC0
1FFFFFFFC0
3FC0000000
7E00000000
7C00000000
F800000000
F800000000
F800000000
F800000000
F800000000
F800000000
F800000000
F800000000
F800000000
F800000000
F800000000
F800000000
F800000000
F800000000
FFFFFFFFC0
FFFFFFFFC0
FFFFFFFFC0
FFFFFFFFC0
F800000000
F800000000
F800000000
F800000000
F800000000
F800000000
F800000000
F800000000
F800000000
F800000000
F800000000
F800000000
F800000000
F800000000
F800000000
F800000000
7C00000000
7E00000000
3FFFFFFFC0
1FFFFFFFC0
0FFFFFFFC0
07FFFFFFC0
01FFFFFFC0
ENDCHAR
STARTCHAR 0046
ENCODING 70
SWIDTH 541 0
DWIDTH 39 0
BBX 34 48 1 0
BITMAP
01FFFFFFC0
07FFFFFFC0
0FFFFFFFC0
1FFFFFFFC0
3FC0000000
7E00000000
7C00000000
F800000000
F800000000
F800000000
F800000000
F800000000
F800000000
F800000000
F800000000
F800000000
F800000000
F800000000
F800000000
F800000000
F800000000
FFFFFFFFC0
FFFFFFFFC0
FFFFFFFFC0
FFFFFFFFC0
F800000000
F800000000
F800000000
F800000000
F800000000
F800000000
F800000000
F800000000
F800000000
F800000000
F800000000
F800000000
F800000000
F800000000
F800000000
F800000000
F800000000
F800000000
F800000000
F800000000
F800000000
F800000000
F800000000
ENDCHAR
STARTCHAR 0047
ENCODING 71
SWIDTH 583 0
DWIDTH 42 0
BBX 37 48 1 0
BITMAP
01FFFFFFC0
07FFFFFFC0
0FFFFFFFC0
1FFFFFFFC0
3FC0000000
7E00000000
7C00000000
F800000000
F800000000
F800000000
F800000000
F800000000
F800000000
F800000000
F800000000
F800000000
F800000000
F800000000
F800000000
F800000000
F800000000
FFFFFFFC00
FFFFFFFF00
FFFFFFFF80
FFFFFFFFC0
F800001FE0
F8000003F0
F8000001F0
F8000000F0
F8000000F8
F8000000F8
F8000000F8
F8000000F8
F8000000F8
F8000000F8
F8000000F8
F8000000F8
F8000000F8
F8000000F8
F8000000F8
F8000000F0
7C000001F0
7E000003F0
3FFFFFFFE0
1FFFFFFFC0
0FFFFFFF80
07FFFFFF00
01FFFFFC00
ENDCHAR
STARTCHAR 0048
ENCODING 72
SWIDTH 583 0
DWIDTH 42 0
BBX 37 48 1 0
BITMAP
F8000000F8
F8000000F8
F8000000F8
F8000000F8
F8000000F8
F8000000F8
F8000000F8
F8000000F8
F8000000F8
F8000000F8
F8000000F8
F8000000F8
F8000000F8
F8000000F8
F8000000F8
F8000000F8
F8000000F8
F8000000F8
F8000000F8
F8000000F8
F8000000F8
FFFFFFFFF8
FFFFFFFFF8
FFFFFFFFF8
FFFFFFFFF8
F8000000F8
F8000000F8
F8000000F8
F8000000F8
F8000000F8
F8000000F8
F8000000F8
F8000000F8
F8000000F8
F8000000F8
F8000000F8
F8000000F8
F8000000F8
F8000000F8
F8000000F8
F8000000F8
F8000000F8
F8000000F8
F8000000F8
F8000000F8
F8000000F8
F8000000F8
F8000000F8
ENDCHAR
STARTCHAR 0049
ENCODING 73
SWIDTH 138 0
DWIDTH 10 0
BBX 5 48 1 0
BITMAP
F8
F8
F8
F8
F8
F8
F8
F8
F8
F8
F8
F8
F8
F8
F8
F8
F8
F8
F8
F8
F8
F8
F8
F8
F8
F8
F8
F8
F8
F8
F8
F8
F8
F8
F8
F8
F8
F8
F8
F8
F8
F8
F8
F8
F8
F8
F8
F8
ENDCHAR
STARTCHAR 004A
ENCODING 74
SWIDTH 541 0
DWIDTH 39 0
BBX 34 48 1 0
BITMAP
00000007C0
00000007C0
00000007C0
00000007C0
00000007C0
00000007C0
00000007C0
00000007C0
00000007C0
00000007C0
00000007C0
00000007C0
00000007C0
00000007C0
00000007C0
00000007C0
00000007C0
00000007C0
00000007C0
00000007C0
00000007C0
00000007C0
00000007C0
00000007C0
00000007C0
00000007C0
00000007C0
00000007C0
00000007C0
00000007C0
00000007C0
00000007C0
00000007C0
00000007C0
00000007C0
00000007C0
00000007C0
00000007C0
0000000780
0000000780
0000000F80
0000000F80
0000003F00
FFFFFFFF00
FFFFFFFE00
FFFFFFFC00
FFFFFFF800
FFFFFFC000
ENDCHAR
STARTCHAR 004B
ENCODING 75
SWIDTH 597 0
DWIDTH 43 0
BBX 38 48 1 0
BITMAP
F8000000F0
F8000001F0
F8000003F0
F8000007F0
F800000FC0
F800001F80
F800003F00
F800007E00
F80000FC00
F80001F800
F80003F000
F80007E000
F8000FC000
F8001F8000
F8003F0000
F8007E0000
F800FC0000
F801F80000
F803F00000
F80FE00000
F81FC00000
FFFF800000
FFFF000000
FFFF000000
FFFF800000
F87FC00000
F80FE00000
F807F00000
F803F80000
F801FC0000
F800FE0000
F8007F0000
F8003F8000
F8001FC000
F8000FE000
F80007F000
F80003F800
F80001FC00
F80000FE00
F800007F00
F800003F80
F800001FC0
F800000FE0
F8000007FC
F8000003FC
F8000001FC
F8000000FC
F80000007C
ENDCHAR
STARTCHAR 004C
ENCODING 76
SWIDTH 527 0
DWIDTH 38 0
BBX 34 48 1 0
BITMAP
F800000000
F800000000
F800000000
F800000000
F800000000
F800000000
F800000000
F800000000
F800000000
F800000000
F800000000
F800000000
F800000000
F800000000
F800000000
F800000000
F800000000
F800000000
F800000000
F800000000
F800000000
F800000000
F800000000
F800000000
F800000000
F800000000
F800000000
F800000000
F800000000
F800000000
F800000000
F800000000
F800000000
F800000000
F800000000
F800000000
F800000000
F800000000
F800000000
F800000000
F800000000
7C00000000
7E00000000
3FFFFFFFC0
1FFFFFFFC0
0FFFFFFFC0
07FFFFFFC0
01FFFFFFC0
ENDCHAR
STARTCHAR 004D
ENCODING 77
SWIDTH 1041 0
DWIDTH 75 0
BBX 69 48 1 0
BITMAP
01FFFFFC01FFFFFC00
07FFFFFF07FFFFFF00
0FFFFFFF8FFFFFFF80
1FFFFFFFDFFFFFFFC0
3FC0001FFFC0001FE0
7E000003FE000003F0
7C000001FC000001F0
F8000000F8000000F8
F8000000F8000000F8
F8000000F8000000F8
F8000000F800000078
F8000000F800000078
F8000000F800000078
F8000000F800000078
F8000000F800000078
F8000000F800000078
F8000000F800000078
F8000000F800000078
F8000000F800000078
F8000000F800000078
F8000000F800000078
F8000000F800000078
F8000000F800000078
F8000000F800000078
F8000000F800000078
F8000000F800000078
F8000000F800000078
F8000000F800000078
F8000000F800000078
F8000000F800000078
F8000000F800000078
F8000000F800000078
F8000000F800000078
F8000000F800000078
F8000000F800000078
F8000000F800000078
F8000000F800000078
F8000000F800000078
F8000000F800000078
F8000000F800000078
F8000000F800000078
F8000000F800000078
F8000000F800000078
F8000000F800000078
F8000000F800000078
F8000000F800000078
F8000000F800000078
F8000000F800000078
ENDCHAR
STARTCHAR 004E
ENCODING 78
SWIDTH 652 0
DWIDTH 47 0
BBX 42 48 1 0
BITMAP
01FF800007C0
07FFE00007C0
0FFFF00007C0
1FFFF80007C0
3FC3FC0007C0
7E007E0007C0
7C003F0007C0
F8001F8007C0
F8000FC007C0
F80007E007C0
F80003F007C0
F80001F807C0
F80000FC07C0
F800007E07C0
F800003F07C0
F800001F87C0
F800000FC7C0
F8000007E7C0
F8000003F7C0
F8000001FFC0
F8000000FFC0
F80000007FC0
F80000003FC0
F80000001FC0
F80000000FC0
F800000007C0
F800000007C0
F800000007C0
F800000007C0
F800000007C0
F800000007C0
F800000007C0
F800000007C0
F800000007C0
F800000007C0
F800000007C0
F800000007C0
F800000007C0
F800000007C0
F800000007C0
F800000007C0
F800000007C0
F800000007C0
F800000007C0
F800000007C0
F800000007C0
F800000007C0
F800000007C0
ENDCHAR
STARTCHAR 004F
ENCODING 79
SWIDTH 583 0
DWIDTH 42 0
BBX 37 48 1 0
BITMAP
01FFFFFC00
07FFFFFF00
0FFFFFFF80
1FFFFFFFC0
3FC0001FE0
7E000003F0
7C000001F0
F8000000F0
F8000000F8
F8000000F8
F8000000F8
F8000000F8
F8000000F8
F8000000F8
F8000000F8
F8000000F8
F8000000F8
F8000000F8
F8000000F8
F8000000F8
F8000000F8
F8000000F8
F8000000F8
F8000000F8
F8000000F8
F8000000F8
F8000000F8
F8000000F8
F8000000F8
F8000000F8
F8000000F8
F8000000F8
F8000000F8
F8000000F8
F8000000F8
F8000000F8
F8000000F8
F8000000F8
F8000000F8
F8000000F8
F8000000F0
7C000001F0
7E000003F0
3FFFFFFFE0
1FFFFFFFC0
0FFFFFFF80
07FFFFFF00
01FFFFFC00
ENDCHAR
STARTCHAR 0050
ENCODING 80
SWIDTH 583 0
DWIDTH 42 0
BBX 37 48 1 0
BITMAP
01FFFFFC00
07FFFFFF00
0FFFFFFF80
1FFFFFFFC0
3FC0001FE0
7E000003F0
7C000001F0
F8000000F0
F8000000F8
F8000000F8
F8000000F8
F8000000F8
F8000000F8
F8000000F8
F8000000F8
F8000000F8
F8000000F8
F8000000F8
F8000000F8
F8000000F8
F8000000F8
F8000000F8
F8000000F8
F8000000F8
F8000001F0
F8000001F0
F8000003F0
FFFFFFFFE0
FFFFFFFFC0
FFFFFFFF80
FFFFFFFF00
FFFFFFF800
F800000000
F800000000
F800000000
F800000000
F800000000
F800000000
F800000000
F800000000
F800000000
F800000000
F800000000
F800000000
F800000000
F800000000
F800000000
F800000000
ENDCHAR
STARTCHAR 0051
ENCODING 81
SWIDTH 583 0
DWIDTH 42 0
BBX 37 53 1 -5
BITMAP
01FFFFFC00
07FFFFFF00
0FFFFFFF80
1FFFFFFFC0
3FC0001FE0
7E000003F0
7C000001F0
F8000000F0
F8000000F8
F8000000F8
F8000000F8
F8000000F8
F8000000F8
F8000000F8
F8000000F8
F8000000F8
F8000000F8
F8000000F8
F8000000F8
F8000000F8
F8000000F8
F8000000F8
F8000000F8
F8000000F8
F8000000F8
F8000000F8
F8000000F8
F8000000F8
F8000000F8
F8000000F8
F8000000F8
F8000000F8
F8000000F8
F8000000F8
F8000000F8
F8000000F8
F8000000F8
F8000000F8
F8000000F8
F8000000F8
F8000000F0
7C000001F0
7E000003F0
3FFF07FFE0
1FFF7FFFC0
0FFFFFFF80
07FFFFFF00
01FFFFFC00
000FE00000
001FC00000
000F800000
0007000000
0002000000
ENDCHAR
STARTCHAR 0052
ENCODING 82
SWIDTH 583 0
DWIDTH 42 0
BBX 37 48 1 0
BITMAP
01FFFFFC00
07FFFFFF00
0FFFFFFF80
1FFFFFFFC0
3FC0001FE0
7E000003F0
7C000001F0
F8000000F0
F8000000F8
F8000000F8
F8000000F8
F8000000F8
F8000000F8
F8000000F8
F8000000F8
F8000000F8
F8000000F8
F8000000F8
F8000001F0
F8000003F0
F800000FE0
FFFFFFFFE0
FFFFFFFFC0
FFFFFFFF00
FFFFFFFE00
F803FF0000
F8007F8000
F8003FE000
F8000FF800
F80003FC00
F80001FF00
F800007F80
F800003FC0
F800000FE0
F8000003F0
F8000001F0
F8000000F0
F8000000F8
F8000000F8
F8000000F8
F8000000F8
F8000000F8
F8000000F8
F8000000F8
F8000000F8
F8000000F8
F8000000F8
F8000000F8
ENDCHAR
STARTCHAR 0053
ENCODING 83
SWIDTH 583 0
DWIDTH 42 0
BBX 37 48 1 0
BITMAP
01FFFFFC00
07FFFFFF00
0FFFFFFF80
1FFFFFFFC0
3FC0001FE0
7E000003F0
7C000001F0
F8000000F0
F8000000F8
F8000000F8
F8000000F8
F8000000F8
F8000000F8
F800000000
F800000000
7C00000000
7E00000000
3F80000000
3FE0000000
1FFC000000
07FF000000
03FFC00000
007FF80000
001FFE0000
0003FFC000
0000FFF000
00003FFC00
000007FF00
000001FF80
0000003FC0
0000000FE0
00000003F0
00000001F0
00000000F0
00000000F8
F8000000F8
F8000000F8
F8000000F8
F8000000F8
F8000000F8
F8000000F0
7C000001F0
7E000003F0
3FFFFFFFE0
1FFFFFFFC0
0FFFFFFF80
07FFFFFF00
01FFFFFC00
ENDCHAR
STARTCHAR 0054
ENCODING 84
SWIDTH 583 0
DWIDTH 42 0
BBX 37 48 1 0
BITMAP
FFFFFFFFF8
FFFFFFFFF8
FFFFFFFFF8
FFFFFFFFF8
0000F80000
0000F80000
0000F80000
0000F80000
0000F80000
0000F80000
0000F80000
0000F80000
0000F80000
0000F80000
0000F80000
0000F80000
0000F80000
0000F80000
0000F80000
0000F80000
0000F80000
0000F80000
0000F80000
0000F80000
0000F80000
0000F80000
0000F80000
0000F80000
0000F80000
0000F80000
0000F80000
0000F80000
0000F80000
0000F80000
0000F80000
0000F80000
0000F80000
0000F80000
0000F80000
0000F80000
0000F80000
0000F80000
0000F80000
0000F80000
0000F80000
0000F80000
0000F80000
0000F80000
ENDCHAR
STARTCHAR 0055
ENCODING 85
SWIDTH 583 0
DWIDTH 42 0
BBX 37 48 1 0
BITMAP
F8000000F8
F8000000F8
F8000000F8
F8000000F8
F8000000F8
F8000000F8
F8000000F8
F8000000F8
F8000000F8
F8000000F8
F8000000F8
F8000000F8
F8000000F8
F8000000F8
F8000000F8
F8000000F8
F8000000F8
F8000000F8
F8000000F8
F8000000F8
F8000000F8
F8000000F8
F8000000F8
F8000000F8
F8000000F8
F8000000F8
F8000000F8
F8000000F8
F8000000F8
F8000000F8
F8000000F8
F8000000F8
F8000000F8
F8000000F8
F8000000F8
F8000000F8
F8000000F8
F8000000F8
F8000000F8
F8000000F8
F8000000F0
7C000001F0
7E000003F0
3FFFFFFFE0
1FFFFFFFC0
0FFFFFFF80
07FFFFFF00
01FFFFFC00
ENDCHAR
STARTCHAR 0056
ENCODING 86
SWIDTH 680 0
DWIDTH 49 0
BBX 43 49 1 -1
BITMAP
F800000001E0
F800000001E0
F800000001E0
F800000001E0
F800000001E0
F800000001E0
F800000001E0
F800000001E0
F800000001E0
F800000001E0
F800000001E0
F800000001E0
F800000001E0
F800000001E0
F800000001E0
F800000001E0
F800000001E0
F800000001E0
F800000001E0
F800000001E0
F800000001E0
F800000001E0
F800000001E0
F800000001E0
F800000001E0
F800000001E0
F800000001E0
F800000001E0
F800000001E0
F800000001E0
F800000001E0
F800000003E0
F800000003E0
7C00000007E0
7E0000000FC0
3F8000001FC0
3FC000007F80
1FF00000FF00
07F80003FE00
03FE0007F800
00FF001FF000
007FC07FC000
001FE0FF8000
000FFBFE0000
0003FFFC0000
0001FFF00000
00007FE00000
00003F800000
00000F000000
ENDCHAR
STARTCHAR 0057
ENCODING 87
SWIDTH 1208 0
DWIDTH 87 0
BBX 82 49 1 -1
BITMAP
F800000001E000000007C0
F800000001E000000007C0
F800000001E000000007C0
F800000001E000000007C0
F800000001E000000007C0
F800000001E000000007C0
F800000001E000000007C0
F800000001E000000007C0
F800000001E000000007C0
F800000001E000000007C0
F800000001E000000007C0
F800000001E000000007C0
F800000001E000000007C0
F800000001E000000007C0
F800000001E000000007C0
F800000001E000000007C0
F800000001E000000007C0
F800000001E000000007C0
F800000001E000000007C0
F800000001E000000007C0
F800000001E000000007C0
F800000001E000000007C0
F800000001E000000007C0
F800000001E000000007C0
F800000001E000000007C0
F800000001E000000007C0
F800000001E000000007C0
F800000001E000000007C0
F800000001E000000007C0
F800000001E000000007C0
F800000001E000000007C0
F800000003E000000007C0
F800000003F000000007C0
7C00000007F80000000F80
7E0000000FFC0000001F80
3F8000003FFE0000007F00
3FC000007FFF800000FE00
1FF00001FF3FC00003FE00
07F80003FC0FF00007F800
03FE000FF807F8001FF000
00FF001FE001FE003FC000
007FC07FC000FF00FF8000
001FE0FF00003FC1FE0000
000FFBFE00001FF7FC0000
0003FFF8000007FFF00000
0001FFF0000003FFE00000
00007FC0000001FF800000
00003F800000007F000000
00000E000000001C000000
ENDCHAR
STARTCHAR 0058
ENCODING 88
SWIDTH 680 0
DWIDTH 49 0
BBX 43 48 1 0
BITMAP
F800000001E0
F800000001E0
F800000001E0
F800000001E0
F800000001E0
F800000001E0
F800000001E0
F800000003E0
F800000003E0
7C00000007E0
7F0000000FC0
3F8000003F80
1FE00000FF80
0FF00001FE00
07FC0007FC00
01FF000FF000
00FF803FE000
003FE0FF8000
000FF9FE0000
0007FFFC0000
0001FFF00000
00007FE00000
0001FFF00000
0003FFFC0000
000FFBFE0000
003FE0FF8000
007F803FC000
01FF001FF000
03FC0007FC00
0FF80001FE00
1FE00000FF00
3F8000003F80
7F0000000FC0
7C00000007C0
F800000003E0
F800000003E0
F800000001E0
F800000001E0
F800000001E0
F800000001E0
F800000001E0
F800000001E0
F800000001E0
F800000001E0
F800000001E0
F800000001E0
F800000001E0
F800000001E0
ENDCHAR
STARTCHAR 0059
ENCODING 89
SWIDTH 583 0
DWIDTH 42 0
BBX 37 48 1 0
BITMAP
F8000000F8
F8000000F8
F8000000F8
F8000000F8
F8000000F8
F8000000F8
F8000000F8
F8000000F8
F8000000F8
F8000000F8
F8000000F8
F8000000F8
F8000000F8
F8000000F8
F8000000F8
F8000000F8
F8000000F8
F8000000F8
F8000000F8
F8000000F8
F8000000F8
F8000000F8
F8000000F8
F8000000F8
F8000000F8
7C000000F8
7E000000F8
3FFFFFFFF8
1FFFFFFFF8
0FFFFFFFF8
07FFFFFFF8
01FFFFFFF8
00000000F8
00000000F8
00000000F8
00000000F8
00000000F8
00000000F8
00000000F8
00000000F8
00000000F0
00000001F0
00000003F0
1FFFFFFFE0
1FFFFFFFC0
1FFFFFFF80
1FFFFFFF00
1FFFFFFC00
ENDCHAR
STARTCHAR 005A
ENCODING 90
SWIDTH 583 0
DWIDTH 42 0
BBX 37 48 1 0
BITMAP
FFFFFFFC00
FFFFFFFF00
FFFFFFFF80
FFFFFFFFC0
0000001FE0
00000003F0
00000001F0
00000000F0
00000000F8
00000000F8
00000000F8
00000000F8
00000000F8
00000001F0
00000003F0
00000007F0
0000001FE0
0000007FC0
000001FF80
000003FE00
00000FF800
00003FF000
0000FFC000
0001FF0000
0007FC0000
001FF00000
007FE00000
01FF800000
03FE000000
0FF8000000
1FE0000000
3FC0000000
7F00000000
7C00000000
F800000000
F800000000
F800000000
F800000000
F800000000
F800000000
F800000000
7C00000000
7E00000000
3FFFFFFFF8
1FFFFFFFF8
0FFFFFFFF8
07FFFFFFF8
01FFFFFFF8
ENDCHAR
STARTCHAR 005B
ENCODING 91
SWIDTH 500 0
DWIDTH 36 0
BBX 0 0 0 0
BITMAP
ENDCHAR
STARTCHAR 005C
ENCODING 92
SWIDTH 361 0
DWIDTH 26 0
BBX 25 50 0 -2
BITMAP
10000000
78000000
F8000000
FC000000
7C000000
7E000000
3E000000
3E000000
3F000000
1F000000
1F800000
0F800000
0FC00000
07C00000
07C00000
07E00000
03E00000
03F00000
01F00000
01F80000
00F80000
00F80000
00FC0000
007C0000
007E0000
003E0000
003F0000
001F0000
001F0000
001F8000
000F8000
000FC000
0007C000
0007E000
0003E000
0003F000
0001F000
0001F000
0001F800
0000F800
0000FC00
00007C00
00007E00
00003E00
00003E00
00003F00
00001F00
00001F80
00000F00
00000C00
ENDCHAR
STARTCHAR 005D
ENCODING 93
SWIDTH 500 0
DWIDTH 36 0
BBX 0 0 0 0
BITMAP
ENDCHAR
STARTCHAR 005E
ENCODING 94
SWIDTH 666 0
DWIDTH 48 0
BBX 0 0 0 0
BITMAP
ENDCHAR
STARTCHAR 005F
ENCODING 95
SWIDTH 402 0
DWIDTH 29 0
BBX 23 5 1 0
BITMAP
FFFFFE
FFFFFE
FFFFFE
FFFFFE
FFFFFE
ENDCHAR
STARTCHAR 0060
ENCODING 96
SWIDTH 500 0
DWIDTH 36 0
BBX 0 0 0 0
BITMAP
ENDCHAR
STARTCHAR 0061
ENCODING 97
SWIDTH 583 0
DWIDTH 42 0
BBX 37 49 1 -1
BITMAP
01FFFFFC00
07FFFFFF00
0FFFFFFF80
1FFFFFFFC0
3FC0001FE0
7E000003F0
7C000001F0
F8000001F0
F8000000F8
F8000000F8
F8000000F8
F8000000F8
F8000000F8
F8000000F8
F8000000F8
F8000000F8
F8000000F8
F8000000F8
F8000000F8
F8000000F8
F8000000F8
F8000000F8
F8000000F8
FFE00000F8
FFFC0000F8
FFFE0000F8
FFFF0000F8
FFFF8000F8
F81FC000F8
F807E000F8
F803F000F8
F801F800F8
F800FC00F8
F800FE00F8
F8007F00F8
F8003F80F8
F8001FC0F8
F8000FE0F8
F80007F0F8
F80003F8F8
F80001FCF8
F80000FEF8
F800007FF8
F800003FF8
F800001FF8
F800000FF8
F8000007F8
F8000003F0
00000001E0
ENDCHAR
STARTCHAR 0062
ENCODING 98
SWIDTH 583 0
DWIDTH 42 0
BBX 37 48 1 0
BITMAP
01FFFFFC00
07FFFFFF00
0FFFFFFF80
1FFFFFFFC0
3FC0001FE0
7E000003F0
7C000001F0
F8000000F0
F8000000F8
F8000000F8
F8000000F8
F8000000F8
F8000000F8
F8000000F8
F8000000F8
F8000000F8
F8000000F8
F8000000F8
F8000001F0
F8000003F0
F800000FE0
FFFFFFFFE0
FFFFFFFFC0
FFFFFFFF80
FFFFFFFFC0
F800001FE0
F8000003F0
F8000001F0
F8000000F0
F8000000F8
F8000000F8
F8000000F8
F8000000F8
F8000000F8
F8000000F8
F8000000F8
F8000000F8
F8000000F8
F8000000F8
F8000000F8
F8000000F0
F8000001F0
F8000003F0
FFFFFFFFE0
FFFFFFFFC0
FFFFFFFF80
FFFFFFFF00
FFFFFFFC00
ENDCHAR
STARTCHAR 0063
ENCODING 99
SWIDTH 541 0
DWIDTH 39 0
BBX 34 48 1 0
BITMAP
01FFFFFFC0
07FFFFFFC0
0FFFFFFFC0
1FFFFFFFC0
3FC0000000
7E00000000
7C00000000
F800000000
F800000000
F800000000
F800000000
F800000000
F800000000
F800000000
F800000000
F800000000
F800000000
F800000000
F800000000
F800000000
F800000000
F800000000
F800000000
F800000000
F800000000
F800000000
F800000000
F800000000
F800000000
F800000000
F800000000
F800000000
F800000000
F800000000
F800000000
F800000000
F800000000
F800000000
F800000000
F800000000
F800000000
7C00000000
7E00000000
3FFFFFFFC0
1FFFFFFFC0
0FFFFFFFC0
07FFFFFFC0
01FFFFFFC0
ENDCHAR
STARTCHAR 0064
ENCODING 100
SWIDTH 583 0
DWIDTH 42 0
BBX 37 48 1 0
BITMAP
FFFFFFFC00
FFFFFFFF00
FFFFFFFF80
FFFFFFFFC0
F800001FE0
F8000003F0
F8000001F0
F8000000F0
F8000000F8
F8000000F8
F8000000F8
F8000000F8
F8000000F8
F8000000F8
F8000000F8
F8000000F8
F8000000F8
F8000000F8
F8000000F8
F8000000F8
F8000000F8
F8000000F8
F8000000F8
F8000000F8
F8000000F8
F8000000F8
F8000000F8
F8000000F8
F8000000F8
F8000000F8
F8000000F8
F8000000F8
F8000000F8
F8000000F8
F8000000F8
F8000000F8
F8000000F8
F8000000F8
F8000000F8
F8000000F8
F8000000F0
F8000001F0
F8000003F0
FFFFFFFFE0
FFFFFFFFC0
FFFFFFFF80
FFFFFFFF00
FFFFFFFC00
ENDCHAR
STARTCHAR 0065
ENCODING 101
SWIDTH 541 0
DWIDTH 39 0
BBX 34 48 1 0
BITMAP
01FFFFFFC0
07FFFFFFC0
0FFFFFFFC0
1FFFFFFFC0
3FC0000000
7E00000000
7C00000000
F800000000
F800000000
F800000000
F800000000
F800000000
F800000000
F800000000
F800000000
F800000000
F800000000
F800000000
F800000000
F800000000
F800000000
FFFFFFFFC0
FFFFFFFFC0
FFFFFFFFC0
FFFFFFFFC0
F800000000
F800000000
F800000000
F800000000
F800000000
F800000000
F800000000
F800000000
F800000000
F800000000
F800000000
F800000000
F800000000
F800000000
F800000000
F800000000
7C00000000
7E00000000
3FFFFFFFC0
1FFFFFFFC0
0FFFFFFFC0
07FFFFFFC0
01FFFFFFC0
ENDCHAR
STARTCHAR 0066
ENCODING 102
SWIDTH 541 0
DWIDTH 39 0
BBX 34 48 1 0
BITMAP
01FFFFFFC0
07FFFFFFC0
0FFFFFFFC0
1FFFFFFFC0
3FC0000000
7E00000000
7C00000000
F800000000
F800000000
F800000000
F800000000
F800000000
F800000000
F800000000
F800000000
F800000000
F800000000
F800000000
F800000000
F800000000
F800000000
FFFFFFFFC0
FFFFFFFFC0
FFFFFFFFC0
FFFFFFFFC0
F800000000
F800000000
F800000000
F800000000
F800000000
F800000000
F800000000
F800000000
F800000000
F800000000
F800000000
F800000000
F800000000
F800000000
F800000000
F800000000
F800000000
F800000000
F800000000
F800000000
F800000000
F800000000
F800000000
ENDCHAR
STARTCHAR 0067
ENCODING 103
SWIDTH 583 0
DWIDTH 42 0
BBX 37 48 1 0
BITMAP
01FFFFFFC0
07FFFFFFC0
0FFFFFFFC0
1FFFFFFFC0
3FC0000000
7E00000000
7C00000000
F800000000
F800000000
F800000000
F800000000
F800000000
F800000000
F800000000
F800000000
F800000000
F800000000
F800000000
F800000000
F800000000
F800000000
FFFFFFFC00
FFFFFFFF00
FFFFFFFF80
FFFFFFFFC0
F800001FE0
F8000003F0
F8000001F0
F8000000F0
F8000000F8
F8000000F8
F8000000F8
F8000000F8
F8000000F8
F8000000F8
F8000000F8
F8000000F8
F8000000F8
F8000000F8
F8000000F8
F8000000F0
7C000001F0
7E000003F0
3FFFFFFFE0
1FFFFFFFC0
0FFFFFFF80
07FFFFFF00
01FFFFFC00
ENDCHAR
STARTCHAR 0068
ENCODING 104
SWIDTH 583 0
DWIDTH 42 0
BBX 37 48 1 0
BITMAP
F8000000F8
F8000000F8
F8000000F8
F8000000F8
F8000000F8
F8000000F8
F8000000F8
F8000000F8
F8000000F8
F8000000F8
F8000000F8
F8000000F8
F8000000F8
F8000000F8
F8000000F8
F8000000F8
F8000000F8
F8000000F8
F8000000F8
F8000000F8
F8000000F8
FFFFFFFFF8
FFFFFFFFF8
FFFFFFFFF8
FFFFFFFFF8
F8000000F8
F8000000F8
F8000000F8
F8000000F8
F8000000F8
F8000000F8
F8000000F8
F8000000F8
F8000000F8
F8000000F8
F8000000F8
F8000000F8
F8000000F8
F8000000F8
F8000000F8
F8000000F8
F8000000F8
F8000000F8
F8000000F8
F8000000F8
F8000000F8
F8000000F8
F8000000F8
ENDCHAR
STARTCHAR 0069
ENCODING 105
SWIDTH 138 0
DWIDTH 10 0
BBX 5 48 1 0
BITMAP
F8
F8
F8
F8
F8
F8
F8
F8
F8
F8
F8
F8
F8
F8
F8
F8
F8
F8
F8
F8
F8
F8
F8
F8
F8
F8
F8
F8
F8
F8
F8
F8
F8
F8
F8
F8
F8
F8
F8
F8
F8
F8
F8
F8
F8
F8
F8
F8
ENDCHAR
STARTCHAR 006A
ENCODING 106
SWIDTH 541 0
DWIDTH 39 0
BBX 34 48 1 0
BITMAP
00000007C0
00000007C0
00000007C0
00000007C0
00000007C0
00000007C0
00000007C0
00000007C0
00000007C0
00000007C0
00000007C0
00000007C0
00000007C0
00000007C0
00000007C0
00000007C0
00000007C0
00000007C0
00000007C0
00000007C0
00000007C0
00000007C0
00000007C0
00000007C0
00000007C0
00000007C0
00000007C0
00000007C0
00000007C0
00000007C0
00000007C0
00000007C0
00000007C0
00000007C0
00000007C0
00000007C0
00000007C0
00000007C0
0000000780
0000000780
0000000F80
0000000F80
0000003F00
FFFFFFFF00
FFFFFFFE00
FFFFFFFC00
FFFFFFF800
FFFFFFC000
ENDCHAR
STARTCHAR 006B
ENCODING 107
SWIDTH 597 0
DWIDTH 43 0
BBX 38 48 1 0
BITMAP
F8000000F0
F8000001F0
F8000003F0
F8000007F0
F800000FC0
F800001F80
F800003F00
F800007E00
F80000FC00
F80001F800
F80003F000
F80007E000
F8000FC000
F8001F8000
F8003F0000
F8007E0000
F800FC0000
F801F80000
F803F00000
F80FE00000
F81FC00000
FFFF800000
FFFF000000
FFFF000000
FFFF800000
F87FC00000
F80FE00000
F807F00000
F803F80000
F801FC0000
F800FE0000
F8007F0000
F8003F8000
F8001FC000
F8000FE000
F80007F000
F80003F800
F80001FC00
F80000FE00
F800007F00
F800003F80
F800001FC0
F800000FE0
F8000007FC
F8000003FC
F8000001FC
F8000000FC
F80000007C
ENDCHAR
STARTCHAR 006C
ENCODING 108
SWIDTH 527 0
DWIDTH 38 0
BBX 34 48 1 0
BITMAP
F800000000
F800000000
F800000000
F800000000
F800000000
F800000000
F800000000
F800000000
F800000000
F800000000
F800000000
F800000000
F800000000
F800000000
F800000000
F800000000
F800000000
F800000000
F800000000
F800000000
F800000000
F800000000
F800000000
F800000000
F800000000
F800000000
F800000000
F800000000
F800000000
F800000000
F800000000
F800000000
F800000000
F800000000
F800000000
F800000000
F800000000
F800000000
F800000000
F800000000
F800000000
7C00000000
7E00000000
3FFFFFFFC0
1FFFFFFFC0
0FFFFFFFC0
07FFFFFFC0
01FFFFFFC0
ENDCHAR
STARTCHAR 006D
ENCODING 109
SWIDTH 1041 0
DWIDTH 75 0
BBX 69 48 1 0
BITMAP
01FFFFFC01FFFFFC00
07FFFFFF07FFFFFF00
0FFFFFFF8FFFFFFF80
1FFFFFFFDFFFFFFFC0
3FC0001FFFC0001FE0
7E000003FE000003F0
7C000001FC000001F0
F8000000F8000000F8
F8000000F8000000F8
F8000000F8000000F8
F8000000F800000078
F8000000F800000078
F8000000F800000078
F8000000F800000078
F8000000F800000078
F8000000F800000078
F8000000F800000078
F8000000F800000078
F8000000F800000078
F8000000F800000078
F8000000F800000078
F8000000F800000078
F8000000F800000078
F8000000F800000078
F8000000F800000078
F8000000F800000078
F8000000F800000078
F8000000F800000078
F8000000F800000078
F8000000F800000078
F8000000F800000078
F8000000F800000078
F8000000F800000078
F8000000F800000078
F8000000F800000078
F8000000F800000078
F8000000F800000078
F8000000F800000078
F8000000F800000078
F8000000F800000078
F8000000F800000078
F8000000F800000078
F8000000F800000078
F8000000F800000078
F8000000F800000078
F8000000F800000078
F8000000F800000078
F8000000F800000078
ENDCHAR
STARTCHAR 006E
ENCODING 110
SWIDTH 652 0
DWIDTH 47 0
BBX 42 48 1 0
BITMAP
01FF800007C0
07FFE00007C0
0FFFF00007C0
1FFFF80007C0
3FC3FC0007C0
7E007E0007C0
7C003F0007C0
F8001F8007C0
F8000FC007C0
F80007E007C0
F80003F007C0
F80001F807C0
F80000FC07C0
F800007E07C0
F800003F07C0
F800001F87C0
F800000FC7C0
F8000007E7C0
F8000003F7C0
F8000001FFC0
F8000000FFC0
F80000007FC0
F80000003FC0
F80000001FC0
F80000000FC0
F800000007C0
F800000007C0
F800000007C0
F800000007C0
F800000007C0
F800000007C0
F800000007C0
F800000007C0
F800000007C0
F800000007C0
F800000007C0
F800000007C0
F800000007C0
F800000007C0
F800000007C0
F800000007C0
F800000007C0
F800000007C0
F800000007C0
F800000007C0
F800000007C0
F800000007C0
F800000007C0
ENDCHAR
STARTCHAR 006F
ENCODING 111
SWIDTH 583 0
DWIDTH 42 0
BBX 37 48 1 0
BITMAP
01FFFFFC00
07FFFFFF00
0FFFFFFF80
1FFFFFFFC0
3FC0001FE0
7E000003F0
7C000001F0
F8000000F0
F8000000F8
F8000000F8
F8000000F8
F8000000F8
F8000000F8
F8000000F8
F8000000F8
F8000000F8
F8000000F8
F8000000F8
F8000000F8
F8000000F8
F8000000F8
F8000000F8
F8000000F8
F8000000F8
F8000000F8
F8000000F8
F8000000F8
F8000000F8
F8000000F8
F8000000F8
F8000000F8
F8000000F8
F8000000F8
F8000000F8
F8000000F8
F8000000F8
F8000000F8
F8000000F8
F8000000F8
F8000000F8
F8000000F0
7C000001F0
7E000003F0
3FFFFFFFE0
1FFFFFFFC0
0FFFFFFF80
07FFFFFF00
01FFFFFC00
ENDCHAR
STARTCHAR 0070
ENCODING 112
SWIDTH 583 0
DWIDTH 42 0
BBX 37 48 1 0
BITMAP
01FFFFFC00
07FFFFFF00
0FFFFFFF80
1FFFFFFFC0
3FC0001FE0
7E000003F0
7C000001F0
F8000000F0
F8000000F8
F8000000F8
F8000000F8
F8000000F8
F8000000F8
F8000000F8
F8000000F8
F8000000F8
F8000000F8
F8000000F8
F8000000F8
F8000000F8
F8000000F8
F8000000F8
F8000000F8
F8000000F8
F8000001F0
F8000001F0
F8000003F0
FFFFFFFFE0
FFFFFFFFC0
FFFFFFFF80
FFFFFFFF00
FFFFFFF800
F800000000
F800000000
F800000000
F800000000
F800000000
F800000000
F800000000
F800000000
F800000000
F800000000
F800000000
F800000000
F800000000
F800000000
F800000000
F800000000
ENDCHAR
STARTCHAR 0071
ENCODING 113
SWIDTH 583 0
DWIDTH 42 0
BBX 37 53 1 -5
BITMAP
01FFFFFC00
07FFFFFF00
0FFFFFFF80
1FFFFFFFC0
3FC0001FE0
7E000003F0
7C000001F0
F8000000F0
F8000000F8
F8000000F8
F8000000F8
F8000000F8
F8000000F8
F8000000F8
F8000000F8
F8000000F8
F8000000F8
F8000000F8
F8000000F8
F8000000F8
F8000000F8
F8000000F8
F8000000F8
F8000000F8
F8000000F8
F8000000F8
F8000000F8
F8000000F8
F8000000F8
F8000000F8
F8000000F8
F8000000F8
F8000000F8
F8000000F8
F8000000F8
F8000000F8
F8000000F8
F8000000F8
F8000000F8
F8000000F8
F8000000F0
7C000001F0
7E000003F0
3FFF07FFE0
1FFF7FFFC0
0FFFFFFF80
07FFFFFF00
01FFFFFC00
000FE00000
001FC00000
000F800000
0007000000
0002000000
ENDCHAR
STARTCHAR 0072
ENCODING 114
SWIDTH 583 0
DWIDTH 42 0
BBX 37 48 1 0
BITMAP
01FFFFFC00
07FFFFFF00
0FFFFFFF80
1FFFFFFFC0
3FC0001FE0
7E000003F0
7C000001F0
F8000000F0
F8000000F8
F8000000F8
F8000000F8
F8000000F8
F8000000F8
F8000000F8
F8000000F8
F8000000F8
F8000000F8
F8000000F8
F8000001F0
F8000003F0
F800000FE0
FFFFFFFFE0
FFFFFFFFC0
FFFFFFFF00
FFFFFFFE00
F803FF0000
F8007F8000
F8003FE000
F8000FF800
F80003FC00
F80001FF00
F800007F80
F800003FC0
F800000FE0
F8000003F0
F8000001F0
F8000000F0
F8000000F8
F8000000F8
F8000000F8
F8000000F8
F8000000F8
F8000000F8
F8000000F8
F8000000F8
F8000000F8
F8000000F8
F8000000F8
ENDCHAR
STARTCHAR 0073
ENCODING 115
SWIDTH 583 0
DWIDTH 42 0
BBX 37 48 1 0
BITMAP
01FFFFFC00
07FFFFFF00
0FFFFFFF80
1FFFFFFFC0
3FC0001FE0
7E000003F0
7C000001F0
F8000000F0
F8000000F8
F8000000F8
F8000000F8
F8000000F8
F8000000F8
F800000000
F800000000
7C00000000
7E00000000
3F80000000
3FE0000000
1FFC000000
07FF000000
03FFC00000
007FF80000
001FFE0000
0003FFC000
0000FFF000
00003FFC00
000007FF00
000001FF80
0000003FC0
0000000FE0
00000003F0
00000001F0
00000000F0
00000000F8
F8000000F8
F8000000F8
F8000000F8
F8000000F8
F8000000F8
F8000000F0
7C000001F0
7E000003F0
3FFFFFFFE0
1FFFFFFFC0
0FFFFFFF80
07FFFFFF00
01FFFFFC00
ENDCHAR
STARTCHAR 0074
ENCODING 116
SWIDTH 583 0
DWIDTH 42 0
BBX 37 48 1 0
BITMAP
FFFFFFFFF8
FFFFFFFFF8
FFFFFFFFF8
FFFFFFFFF8
0000F80000
0000F80000
0000F80000
0000F80000
0000F80000
0000F80000
0000F80000
0000F80000
0000F80000
0000F80000
0000F80000
0000F80000
0000F80000
0000F80000
0000F80000
0000F80000
0000F80000
0000F80000
0000F80000
0000F80000
0000F80000
0000F80000
0000F80000
0000F80000
0000F80000
0000F80000
0000F80000
0000F80000
0000F80000
0000F80000
0000F80000
0000F80000
0000F80000
0000F80000
0000F80000
0000F80000
0000F80000
0000F80000
0000F80000
0000F80000
0000F80000
0000F80000
0000F80000
0000F80000
ENDCHAR
STARTCHAR 0075
ENCODING 117
SWIDTH 583 0
DWIDTH 42 0
BBX 37 48 1 0
BITMAP
F8000000F8
F8000000F8
F8000000F8
F8000000F8
F8000000F8
F8000000F8
F8000000F8
F8000000F8
F8000000F8
F8000000F8
F8000000F8
F8000000F8
F8000000F8
F8000000F8
F8000000F8
F8000000F8
F8000000F8
F8000000F8
F8000000F8
F8000000F8
F8000000F8
F8000000F8
F8000000F8
F8000000F8
F8000000F8
F8000000F8
F8000000F8
F8000000F8
F8000000F8
F8000000F8
F8000000F8
F8000000F8
F8000000F8
F8000000F8
F8000000F8
F8000000F8
F8000000F8
F8000000F8
F8000000F8
F8000000F8
F8000000F0
7C000001F0
7E000003F0
3FFFFFFFE0
1FFFFFFFC0
0FFFFFFF80
07FFFFFF00
01FFFFFC00
ENDCHAR
STARTCHAR 0076
ENCODING 118
SWIDTH 680 0
DWIDTH 49 0
BBX 43 49 1 -1
BITMAP
F800000001E0
F800000001E0
F800000001E0
F800000001E0
F800000001E0
F800000001E0
F800000001E0
F800000001E0
F800000001E0
F800000001E0
F800000001E0
F800000001E0
F800000001E0
F800000001E0
F800000001E0
F800000001E0
F800000001E0
F800000001E0
F800000001E0
F800000001E0
F800000001E0
F800000001E0
F800000001E0
F800000001E0
F800000001E0
F800000001E0
F800000001E0
F800000001E0
F800000001E0
F800000001E0
F800000001E0
F800000003E0
F800000003E0
7C00000007E0
7E0000000FC0
3F8000001FC0
3FC000007F80
1FF00000FF00
07F80003FE00
03FE0007F800
00FF001FF000
007FC07FC000
001FE0FF8000
000FFBFE0000
0003FFFC0000
0001FFF00000
00007FE00000
00003F800000
00000F000000
ENDCHAR
STARTCHAR 0077
ENCODING 119
SWIDTH 1208 0
DWIDTH 87 0
BBX 82 49 1 -1
BITMAP
F800000001E000000007C0
F800000001E000000007C0
F800000001E000000007C0
F800000001E000000007C0
F800000001E000000007C0
F800000001E000000007C0
F800000001E000000007C0
F800000001E000000007C0
F800000001E000000007C0
F800000001E000000007C0
F800000001E000000007C0
F800000001E000000007C0
F800000001E000000007C0
F800000001E000000007C0
F800000001E000000007C0
F800000001E000000007C0
F800000001E000000007C0
F800000001E000000007C0
F800000001E000000007C0
F800000001E000000007C0
F800000001E000000007C0
F800000001E000000007C0
F800000001E000000007C0
F800000001E000000007C0
F800000001E000000007C0
F800000001E000000007C0
F800000001E000000007C0
F800000001E000000007C0
F800000001E000000007C0
F800000001E000000007C0
F800000001E000000007C0
F800000003E000000007C0
F800000003F000000007C0
7C00000007F80000000F80
7E0000000FFC0000001F80
3F8000003FFE0000007F00
3FC000007FFF800000FE00
1FF00001FF3FC00003FE00
07F80003FC0FF00007F800
03FE000FF807F8001FF000
00FF001FE001FE003FC000
007FC07FC000FF00FF8000
001FE0FF00003FC1FE0000
000FFBFE00001FF7FC0000
0003FFF8000007FFF00000
0001FFF0000003FFE00000
00007FC0000001FF800000
00003F800000007F000000
00000E000000001C000000
ENDCHAR
STARTCHAR 0078
ENCODING 120
SWIDTH 680 0
DWIDTH 49 0
BBX 43 48 1 0
BITMAP
F800000001E0
F800000001E0
F800000001E0
F800000001E0
F800000001E0
F800000001E0
F800000001E0
F800000003E0
F800000003E0
7C00000007E0
7F0000000FC0
3F8000003F80
1FE00000FF80
0FF00001FE00
07FC0007FC00
01FF000FF000
00FF803FE000
003FE0FF8000
000FF9FE0000
0007FFFC0000
0001FFF00000
00007FE00000
0001FFF00000
0003FFFC0000
000FFBFE0000
003FE0FF8000
007F803FC000
01FF001FF000
03FC0007FC00
0FF80001FE00
1FE00000FF00
3F8000003F80
7F0000000FC0
7C00000007C0
F800000003E0
F800000003E0
F800000001E0
F800000001E0
F800000001E0
F800000001E0
F800000001E0
F800000001E0
F800000001E0
F800000001E0
F800000001E0
F800000001E0
F800000001E0
F800000001E0
ENDCHAR
STARTCHAR 0079
ENCODING 121
SWIDTH 583 0
DWIDTH 42 0
BBX 37 48 1 0
BITMAP
F8000000F8
F8000000F8
F8000000F8
F8000000F8
F8000000F8
F8000000F8
F8000000F8
F8000000F8
F8000000F8
F8000000F8
F8000000F8
F8000000F8
F8000000F8
F8000000F8
F8000000F8
F8000000F8
F8000000F8
F8000000F8
F8000000F8
F8000000F8
F8000000F8
F8000000F8
F8000000F8
F8000000F8
F8000000F8
7C000000F8
7E000000F8
3FFFFFFFF8
1FFFFFFFF8
0FFFFFFFF8
07FFFFFFF8
01FFFFFFF8
00000000F8
00000000F8
00000000F8
00000000F8
00000000F8
00000000F8
00000000F8
00000000F8
00000000F0
00000001F0
00000003F0
1FFFFFFFE0
1FFFFFFFC0
1FFFFFFF80
1FFFFFFF00
1FFFFFFC00
ENDCHAR
STARTCHAR 007A
ENCODING 122
SWIDTH 583 0
DWIDTH 42 0
BBX 37 48 1 0
BITMAP
FFFFFFFC00
FFFFFFFF00
FFFFFFFF80
FFFFFFFFC0
0000001FE0
00000003F0
00000001F0
00000000F0
00000000F8
00000000F8
00000000F8
00000000F8
00000000F8
00000001F0
00000003F0
00000007F0
0000001FE0
0000007FC0
000001FF80
000003FE00
00000FF800
00003FF000
0000FFC000
0001FF0000
0007FC0000
001FF00000
007FE00000
01FF800000
03FE000000
0FF8000000
1FE0000000
3FC0000000
7F00000000
7C00000000
F800000000
F800000000
F800000000
F800000000
F800000000
F800000000
F800000000
7C00000000
7E00000000
3FFFFFFFF8
1FFFFFFFF8
0FFFFFFFF8
07FFFFFFF8
01FFFFFFF8
ENDCHAR
STARTCHAR 007B
ENCODING 123
SWIDTH 666 0
DWIDTH 48 0
BBX 0 0 0 0
BITMAP
ENDCHAR
STARTCHAR 007C
ENCODING 124
SWIDTH 333 0
DWIDTH 24 0
BBX 0 0 0 0
BITMAP
ENDCHAR
STARTCHAR 007D
ENCODING 125
SWIDTH 666 0
DWIDTH 48 0
BBX 0 0 0 0
BITMAP
ENDCHAR
STARTCHAR 007E
ENCODING 126
SWIDTH 833 0
DWIDTH 60 0
BBX 0 0 0 0
BITMAP
ENDCHAR
STARTCHAR 00A0
ENCODING 160
SWIDTH 833 0
DWIDTH 60 0
BBX 0 0 0 0
BITMAP
ENDCHAR
STARTCHAR 00A9
ENCODING 169
SWIDTH 638 0
DWIDTH 46 0
BBX 40 48 1 0
BITMAP
01FFFFFF80
07FFFFFFE0
0FFFFFFFF0
1FFFFFFFF8
3FC00003FC
7E0000007E
7C0000003E
F80000001F
F80000001F
F80000001F
F80000001F
F803FFFC1F
F807FFFC1F
F80FFFFC1F
F81FFFFC1F
F81F00001F
F81E00001F
F81E00001F
F81E00001F
F81E00001F
F81E00001F
F81E00001F
F81E00001F
F81E00001F
F81E00001F
F81E00001F
F81E00001F
F81E00001F
F81E00001F
F81E00001F
F81E00001F
F81E00001F
F81F80001F
F81FFFFC1F
F80FFFFC1F
F807FFFC1F
F803FFFC1F
F80000001F
F80000001F
F80000001F
F80000001F
7C0000003E
7E0000007E
3FFFFFFFFC
1FFFFFFFF8
0FFFFFFFF0
07FFFFFFE0
01FFFFFF80
ENDCHAR
STARTCHAR 00AE
ENCODING 174
SWIDTH 638 0
DWIDTH 46 0
BBX 40 48 1 0
BITMAP
01FFFFFF80
07FFFFFFE0
0FFFFFFFF0
1FFFFFFFF8
3FC00003FC
7E0000007E
7C0000003E
F80000001F
F80000001F
F80000001F
F80000001F
F807FFE01F
F80FFFF01F
F81FFFF81F
F83FFFFC1F
F83F007C1F
F83C003C1F
F83C003C1F
F83C003C1F
F83C003C1F
F83C003C1F
F83FFFFC1F
F83FFFFC1F
F83FFFF81F
F83FFFFC1F
F83FFFFC1F
F83C003C1F
F83C003C1F
F83C003C1F
F83C003C1F
F83C003C1F
F83C003C1F
F83C003C1F
F83C003C1F
F83C003C1F
F83C003C1F
F83C003C1F
F80000001F
F80000001F
F80000001F
F80000001F
7C0000003E
7E0000007E
3FFFFFFFFC
1FFFFFFFF8
0FFFFFFFF0
07FFFFFFE0
01FFFFFF80
ENDCHAR
STARTCHAR 00C4
ENCODING 196
SWIDTH 583 0
DWIDTH 42 0
BBX 37 57 1 -1
BITMAP
003E03C000
003E03C000
003E03C000
003E03C000
003E03C000
0000000000
0000000000
0000000000
01FFFFFC00
07FFFFFF00
1FFFFFFF80
3FFFFFFFC0
3FC0001FE0
7E000003F0
7C000001F0
F8000001F0
F8000000F8
F8000000F8
F8000000F8
F8000000F8
F8000000F8
F8000000F8
F8000000F8
F8000000F8
F8000000F8
F8000000F8
F8000000F8
F8000000F8
F8000000F8
F8000000F8
F8000000F8
FFE00000F8
FFFC0000F8
FFFE0000F8
FFFF0000F8
FFFF8000F8
F81FC000F8
F807E000F8
F803F000F8
F801F800F8
F800FC00F8
F800FE00F8
F8007F00F8
F8003F80F8
F8001FC0F8
F8000FE0F8
F80007F0F8
F80003F8F8
F80001FCF8
F80000FEF8
F800007FF8
F800003FF8
F800001FF8
F800000FF8
F8000007F8
F8000003F0
00000001E0
ENDCHAR
STARTCHAR 00D6
ENCODING 214
SWIDTH 583 0
DWIDTH 42 0
BBX 37 56 1 0
BITMAP
003E03C000
003E03C000
003E03C000
003E03C000
003E03C000
0000000000
0000000000
0000000000
01FFFFFC00
07FFFFFF00
1FFFFFFF80
3FFFFFFFC0
3FC0001FE0
7E000003F0
7C000001F0
F8000000F0
F8000000F8
F8000000F8
F8000000F8
F8000000F8
F8000000F8
F8000000F8
F8000000F8
F8000000F8
F8000000F8
F8000000F8
F8000000F8
F8000000F8
F8000000F8
F8000000F8
F8000000F8
F8000000F8
F8000000F8
F8000000F8
F8000000F8
F8000000F8
F8000000F8
F8000000F8
F8000000F8
F8000000F8
F8000000F8
F8000000F8
F8000000F8
F8000000F8
F8000000F8
F8000000F8
F8000000F8
F8000000F8
F8000000F0
7C000001F0
7E000003F0
3FFFFFFFE0
1FFFFFFFC0
0FFFFFFF80
07FFFFFF00
01FFFFFC00
ENDCHAR
STARTCHAR 00DC
ENCODING 220
SWIDTH 583 0
DWIDTH 42 0
BBX 37 56 1 0
BITMAP
003E03C000
003E03C000
003E03C000
003E03C000
003E03C000
0000000000
0000000000
0000000000
F8000000F8
F8000000F8
F8000000F8
F8000000F8
F8000000F8
F8000000F8
F8000000F8
F8000000F8
F8000000F8
F8000000F8
F8000000F8
F8000000F8
F8000000F8
F8000000F8
F8000000F8
F8000000F8
F8000000F8
F8000000F8
F8000000F8
F8000000F8
F8000000F8
F8000000F8
F8000000F8
F8000000F8
F8000000F8
F8000000F8
F8000000F8
F8000000F8
F8000000F8
F8000000F8
F8000000F8
F8000000F8
F8000000F8
F8000000F8
F8000000F8
F8000000F8
F8000000F8
F8000000F8
F8000000F8
F8000000F8
F8000000F0
7C000001F0
7E000003F0
3FFFFFFFE0
1FFFFFFFC0
0FFFFFFF80
07FFFFFF00
01FFFFFC00
ENDCHAR
STARTCHAR 00E4
ENCODING 228
SWIDTH 583 0
DWIDTH 42 0
BBX 37 57 1 -1
BITMAP
003E03C000
003E03C000
003E03C000
003E03C000
003E03C000
0000000000
0000000000
0000000000
01FFFFFC00
07FFFFFF00
1FFFFFFF80
3FFFFFFFC0
3FC0001FE0
7E000003F0
7C000001F0
F8000001F0
F8000000F8
F8000000F8
F8000000F8
F8000000F8
F8000000F8
F8000000F8
F8000000F8
F8000000F8
F8000000F8
F8000000F8
F8000000F8
F8000000F8
F8000000F8
F8000000F8
F8000000F8
FFE00000F8
FFFC0000F8
FFFE0000F8
FFFF0000F8
FFFF8000F8
F81FC000F8
F807E000F8
F803F000F8
F801F800F8
F800FC00F8
F800FE00F8
F8007F00F8
F8003F80F8
F8001FC0F8
F8000FE0F8
F80007F0F8
F80003F8F8
F80001FCF8
F80000FEF8
F800007FF8
F800003FF8
F800001FF8
F800000FF8
F8000007F8
F8000003F0
00000001E0
ENDCHAR
STARTCHAR 00F6
ENCODING 246
SWIDTH 583 0
DWIDTH 42 0
BBX 37 56 1 0
BITMAP
003E03C000
003E03C000
003E03C000
003E03C000
003E03C000
0000000000
0000000000
0000000000
01FFFFFC00
07FFFFFF00
1FFFFFFF80
3FFFFFFFC0
3FC0001FE0
7E000003F0
7C000001F0
F8000000F0
F8000000F8
F8000000F8
F8000000F8
F8000000F8
F8000000F8
F8000000F8
F8000000F8
F8000000F8
F8000000F8
F8000000F8
F8000000F8
F8000000F8
F8000000F8
F8000000F8
F8000000F8
F8000000F8
F8000000F8
F8000000F8
F8000000F8
F8000000F8
F8000000F8
F8000000F8
F8000000F8
F8000000F8
F8000000F8
F8000000F8
F8000000F8
F8000000F8
F8000000F8
F8000000F8
F8000000F8
F8000000F8
F8000000F0
7C000001F0
7E000003F0
3FFFFFFFE0
1FFFFFFFC0
0FFFFFFF80
07FFFFFF00
01FFFFFC00
ENDCHAR
STARTCHAR 00FC
ENCODING 252
SWIDTH 583 0
DWIDTH 42 0
BBX 37 56 1 0
BITMAP
003E03C000
003E03C000
003E03C000
003E03C000
003E03C000
0000000000
0000000000
0000000000
F8000000F8
F8000000F8
F8000000F8
F8000000F8
F8000000F8
F8000000F8
F8000000F8
F8000000F8
F8000000F8
F8000000F8
F8000000F8
F8000000F8
F8000000F8
F8000000F8
F8000000F8
F8000000F8
F8000000F8
F8000000F8
F8000000F8
F8000000F8
F8000000F8
F8000000F8
F8000000F8
F8000000F8
F8000000F8
F8000000F8
F8000000F8
F8000000F8
F8000000F8
F8000000F8
F8000000F8
F8000000F8
F8000000F8
F8000000F8
F8000000F8
F8000000F8
F8000000F8
F8000000F8
F8000000F8
F8000000F8
F8000000F0
7C000001F0
7E000003F0
3FFFFFFFE0
1FFFFFFFC0
0FFFFFFF80
07FFFFFF00
01FFFFFC00
ENDCHAR
STARTCHAR 2010
ENCODING 8208
SWIDTH 402 0
DWIDTH 29 0
BBX 23 4 1 23
BITMAP
FFFFFE
FFFFFE
FFFFFE
FFFFFE
ENDCHAR
ENDFONT
